# 3ds Max Wavefront OBJ Exporter v0.97b - (c)2007 guruware
# File Created: 08.09.2017 21:10:26

mtllib Bulletin board.mtl

#
# object Box001
#

v  -1251294.8750 572773.3750 871862.1875
v  -1251294.8750 -850.7500 871862.1875
v  -740900.3750 -850.7500 1109863.0000
v  -740900.3750 572773.3750 1109863.0000
v  -1236902.1250 557037.3750 877551.9375
v  -754510.4375 557037.3750 1102494.8750
v  -754510.4375 14885.2500 1102494.8750
v  -1236902.1250 14885.2500 877551.9375
v  -738153.6250 572773.3750 1103972.6250
v  -1248548.1250 572773.3750 865971.7500
v  -738153.6250 -850.7500 1103972.6250
v  -1248548.1250 -850.7500 865971.7500
v  -752155.0000 557037.3750 1097443.6250
v  -1234546.7500 557037.3750 872500.6875
v  -752155.0000 14885.2500 1097443.6250
v  -1234546.7500 14885.2500 872500.7500
# 16 vertices

vn -0.4226 0.0000 0.9063
vn 0.4226 -0.0000 -0.9063
vn 0.0000 1.0000 -0.0000
vn 0.9063 0.0000 0.4226
vn -0.0000 -1.0000 0.0000
vn -0.9063 0.0000 -0.4226
# 6 vertex normals

vt 1.0000 0.0000 0.0000
vt 1.0000 1.0000 0.0000
vt 0.0000 1.0000 0.0000
vt 0.0000 0.0000 0.0000
# 4 texture coords

g Box001
usemtl _crayfishdiffuse
s 2
f -16/-4/-6 -15/-3/-6 -14/-2/-6 -13/-1/-6 
usemtl 02___Default
s 4
f -12/-1/-5 -11/-4/-5 -10/-3/-5 -9/-2/-5 
usemtl _crayfishdiffuse
s 8
f -16/-1/-4 -13/-4/-4 -8/-3/-4 -7/-2/-4 
s 16
f -13/-1/-3 -14/-4/-3 -6/-3/-3 -8/-2/-3 
s 32
f -14/-1/-2 -15/-4/-2 -5/-3/-2 -6/-2/-2 
s 64
f -15/-1/-1 -16/-4/-1 -7/-3/-1 -5/-2/-1 
s off
f -7/-1/-5 -8/-4/-5 -4/-4/-5 -3/-1/-5 
f -8/-4/-5 -6/-3/-5 -2/-3/-5 -4/-4/-5 
f -6/-3/-5 -5/-2/-5 -1/-2/-5 -2/-3/-5 
f -5/-2/-5 -7/-1/-5 -3/-1/-5 -1/-2/-5 
f -3/-1/-2 -4/-4/-2 -11/-4/-2 -12/-1/-2 
f -4/-4/-1 -2/-3/-1 -10/-3/-1 -11/-4/-1 
f -2/-3/-4 -1/-2/-4 -9/-2/-4 -10/-3/-4 
f -1/-2/-3 -3/-1/-3 -12/-1/-3 -9/-2/-3 
# 14 polygons

#
# object Box002
#

v  -1197414.1250 493578.0938 895816.6875
v  -1197414.1250 290973.1563 895816.6875
v  -1103825.3750 290973.1563 939457.8125
v  -1103825.3750 493578.0938 939457.8125
v  -1191106.1250 487433.2188 897670.1250
v  -1109299.8750 487433.2188 935817.0000
v  -1109299.8750 297118.0313 935817.0000
v  -1191106.1250 297118.0313 897670.1250
v  -1103408.6250 493578.0938 938564.1875
v  -1196997.3750 493578.0938 894923.0000
v  -1103408.6250 290973.1563 938564.1875
v  -1196997.3750 290973.1563 894923.0000
# 12 vertices

vn -0.4226 0.0000 0.9063
vn 0.4226 -0.0000 -0.9063
vn 0.0000 1.0000 -0.0000
vn 0.9063 0.0000 0.4226
vn -0.0000 -1.0000 0.0000
vn -0.9063 0.0000 -0.4226
# 6 vertex normals

vt 1.0000 0.0000 0.0000
vt 1.0000 1.0000 0.0000
vt 0.0000 1.0000 0.0000
vt 0.0000 0.0000 0.0000
# 4 texture coords

g Box002
usemtl 07___Default
s 2
f -12/-4/-6 -11/-3/-6 -10/-2/-6 -9/-1/-6 
usemtl 03___Default
s 4
f -8/-1/-5 -7/-4/-5 -6/-3/-5 -5/-2/-5 
usemtl 07___Default
s 8
f -12/-1/-4 -9/-4/-4 -4/-3/-4 -3/-2/-4 
s 16
f -9/-1/-3 -10/-4/-3 -2/-3/-3 -4/-2/-3 
s 32
f -10/-1/-2 -11/-4/-2 -1/-3/-2 -2/-2/-2 
s 64
f -11/-1/-1 -12/-4/-1 -3/-3/-1 -1/-2/-1 
s off
f -3/-1/-5 -4/-4/-5 -7/-4/-5 -8/-1/-5 
f -4/-4/-5 -2/-3/-5 -6/-3/-5 -7/-4/-5 
f -2/-3/-5 -1/-2/-5 -5/-2/-5 -6/-3/-5 
f -1/-2/-5 -3/-1/-5 -8/-1/-5 -5/-2/-5 
# 10 polygons

#
# object Box003
#

v  -1197414.1250 193688.9688 895816.6875
v  -1197414.1250 47792.5859 895816.6875
v  -1103825.3750 47792.5859 939457.8125
v  -1103825.3750 193688.9688 939457.8125
v  -1191106.1250 187544.0938 897670.1250
v  -1109299.8750 187544.0938 935817.0000
v  -1109299.8750 53937.4766 935817.0000
v  -1191106.1250 53937.4766 897670.1250
v  -1103408.6250 193688.9688 938564.1875
v  -1196997.3750 193688.9688 894923.0000
v  -1103408.6250 47792.5859 938564.1875
v  -1196997.3750 47792.5859 894923.0000
# 12 vertices

vn -0.4226 0.0000 0.9063
vn 0.4226 -0.0000 -0.9063
vn 0.0000 1.0000 -0.0000
vn 0.9063 0.0000 0.4226
vn -0.0000 -1.0000 0.0000
vn -0.9063 0.0000 -0.4226
# 6 vertex normals

vt 1.0000 0.0000 0.0000
vt 1.0000 1.0000 0.0000
vt 0.0000 1.0000 0.0000
vt 0.0000 0.0000 0.0000
# 4 texture coords

g Box003
usemtl 07___Default
s 2
f -12/-4/-6 -11/-3/-6 -10/-2/-6 -9/-1/-6 
usemtl 03___Default
s 4
f -8/-1/-5 -7/-4/-5 -6/-3/-5 -5/-2/-5 
usemtl 07___Default
s 8
f -12/-1/-4 -9/-4/-4 -4/-3/-4 -3/-2/-4 
s 16
f -9/-1/-3 -10/-4/-3 -2/-3/-3 -4/-2/-3 
s 32
f -10/-1/-2 -11/-4/-2 -1/-3/-2 -2/-2/-2 
s 64
f -11/-1/-1 -12/-4/-1 -3/-3/-1 -1/-2/-1 
s off
f -3/-1/-5 -4/-4/-5 -7/-4/-5 -8/-1/-5 
f -4/-4/-5 -2/-3/-5 -6/-3/-5 -7/-4/-5 
f -2/-3/-5 -1/-2/-5 -5/-2/-5 -6/-3/-5 
f -1/-2/-5 -3/-1/-5 -8/-1/-5 -5/-2/-5 
# 10 polygons

#
# object Box004
#

v  -800422.7500 284328.3750 1080936.7500
v  -984045.2500 284328.3750 995312.2500
v  -984045.2500 181064.5469 995312.2500
v  -800422.7500 181064.5469 1080936.7500
v  -805575.1875 277828.0938 1077446.1250
v  -805575.1875 187564.8438 1077446.1250
v  -978059.3750 187564.8438 997015.5000
v  -978059.3750 277828.0938 997015.5000
v  -800006.0625 181064.5469 1080043.1250
v  -800006.0625 284328.3750 1080043.1250
v  -983628.5000 181064.5469 994418.5625
v  -983628.5000 284328.3750 994418.5625
# 12 vertices

vn -0.4226 0.0000 0.9063
vn 0.4226 -0.0000 -0.9063
vn 0.9063 0.0000 0.4226
vn 0.0000 -1.0000 0.0000
vn -0.9063 -0.0000 -0.4226
vn -0.0000 1.0000 -0.0000
# 6 vertex normals

vt 1.0000 0.0000 0.0000
vt 1.0000 1.0000 0.0000
vt 0.0000 1.0000 0.0000
vt 0.0000 0.0000 0.0000
# 4 texture coords

g Box004
usemtl 07___Default
s 2
f -12/-4/-6 -11/-3/-6 -10/-2/-6 -9/-1/-6 
usemtl 03___Default
s 4
f -8/-1/-5 -7/-4/-5 -6/-3/-5 -5/-2/-5 
usemtl 07___Default
s 8
f -12/-1/-4 -9/-4/-4 -4/-3/-4 -3/-2/-4 
s 16
f -9/-1/-3 -10/-4/-3 -2/-3/-3 -4/-2/-3 
s 32
f -10/-1/-2 -11/-4/-2 -1/-3/-2 -2/-2/-2 
s 64
f -11/-1/-1 -12/-4/-1 -3/-3/-1 -1/-2/-1 
s off
f -3/-1/-5 -4/-4/-5 -7/-4/-5 -8/-1/-5 
f -4/-4/-5 -2/-3/-5 -6/-3/-5 -7/-4/-5 
f -2/-3/-5 -1/-2/-5 -5/-2/-5 -6/-3/-5 
f -1/-2/-5 -3/-1/-5 -8/-1/-5 -5/-2/-5 
# 10 polygons

#
# object Box005
#

v  -860468.2500 520181.8125 1052937.1250
v  -1044090.7500 520181.8125 967312.6250
v  -1044090.7500 469380.8438 967312.6250
v  -860468.2500 469380.8438 1052937.1250
v  -865620.6875 513681.5625 1049446.5000
v  -865620.6875 475881.1250 1049446.5000
v  -1038104.8750 475881.1250 969015.8750
v  -1038104.8750 513681.5313 969015.8750
v  -860051.5625 469380.8438 1052043.5000
v  -860051.5625 520181.8125 1052043.5000
v  -1043674.0000 469380.8438 966418.9375
v  -1043674.0000 520181.8125 966418.9375
# 12 vertices

vn -0.4226 0.0000 0.9063
vn 0.4226 -0.0000 -0.9063
vn 0.9063 0.0000 0.4226
vn 0.0000 -1.0000 0.0000
vn -0.9063 -0.0000 -0.4226
vn -0.0000 1.0000 -0.0000
# 6 vertex normals

vt 1.0000 0.0000 0.0000
vt 1.0000 1.0000 0.0000
vt 0.0000 1.0000 0.0000
vt 0.0000 0.0000 0.0000
# 4 texture coords

g Box005
usemtl 07___Default
s 2
f -12/-4/-6 -11/-3/-6 -10/-2/-6 -9/-1/-6 
usemtl 03___Default
s 4
f -8/-1/-5 -7/-4/-5 -6/-3/-5 -5/-2/-5 
usemtl 07___Default
s 8
f -12/-1/-4 -9/-4/-4 -4/-3/-4 -3/-2/-4 
s 16
f -9/-1/-3 -10/-4/-3 -2/-3/-3 -4/-2/-3 
s 32
f -10/-1/-2 -11/-4/-2 -1/-3/-2 -2/-2/-2 
s 64
f -11/-1/-1 -12/-4/-1 -3/-3/-1 -1/-2/-1 
s off
f -3/-1/-5 -4/-4/-5 -7/-4/-5 -8/-1/-5 
f -4/-4/-5 -2/-3/-5 -6/-3/-5 -7/-4/-5 
f -2/-3/-5 -1/-2/-5 -5/-2/-5 -6/-3/-5 
f -1/-2/-5 -3/-1/-5 -8/-1/-5 -5/-2/-5 
# 10 polygons

#
# object Box006
#

v  -887694.8125 441799.3750 1040241.1875
v  -887694.8125 342751.8750 1040241.1875
v  -794105.9375 342751.8750 1083882.3750
v  -794105.9375 441799.3750 1083882.3750
v  -881386.8125 438795.3125 1042094.6250
v  -799580.5000 438795.3125 1080241.5000
v  -799580.5000 345755.9375 1080241.5000
v  -881386.8125 345755.9375 1042094.6250
v  -793689.2500 441799.3750 1082988.6250
v  -887278.0625 441799.3750 1039347.5000
v  -793689.2500 342751.8750 1082988.6250
v  -887278.0625 342751.8750 1039347.5000
# 12 vertices

vn -0.4226 0.0000 0.9063
vn 0.4226 -0.0000 -0.9063
vn 0.0000 1.0000 -0.0000
vn 0.9063 0.0000 0.4226
vn -0.0000 -1.0000 0.0000
vn -0.9063 0.0000 -0.4226
# 6 vertex normals

vt 1.0000 0.0000 0.0000
vt 1.0000 1.0000 0.0000
vt 0.0000 1.0000 0.0000
vt 0.0000 0.0000 0.0000
# 4 texture coords

g Box006
usemtl 07___Default
s 2
f -12/-4/-6 -11/-3/-6 -10/-2/-6 -9/-1/-6 
usemtl 03___Default
s 4
f -8/-1/-5 -7/-4/-5 -6/-3/-5 -5/-2/-5 
usemtl 07___Default
s 8
f -12/-1/-4 -9/-4/-4 -4/-3/-4 -3/-2/-4 
s 16
f -9/-1/-3 -10/-4/-3 -2/-3/-3 -4/-2/-3 
s 32
f -10/-1/-2 -11/-4/-2 -1/-3/-2 -2/-2/-2 
s 64
f -11/-1/-1 -12/-4/-1 -3/-3/-1 -1/-2/-1 
s off
f -3/-1/-5 -4/-4/-5 -7/-4/-5 -8/-1/-5 
f -4/-4/-5 -2/-3/-5 -6/-3/-5 -7/-4/-5 
f -2/-3/-5 -1/-2/-5 -5/-2/-5 -6/-3/-5 
f -1/-2/-5 -3/-1/-5 -8/-1/-5 -5/-2/-5 
# 10 polygons

#
# object Box007
#

v  -1042293.4375 428875.1875 968150.6875
v  -1042293.4375 329827.6875 968150.6875
v  -948704.5625 329827.6875 1011791.8125
v  -948704.5625 428875.1875 1011791.8125
v  -1035985.4375 425871.1250 970004.1250
v  -954179.1250 425871.1250 1008151.0000
v  -954179.1250 332831.7500 1008151.0000
v  -1035985.4375 332831.7500 970004.1250
v  -948287.8750 428875.1875 1010898.1875
v  -1041876.6875 428875.1875 967257.0000
v  -948287.8750 329827.6875 1010898.1875
v  -1041876.6875 329827.6875 967257.0000
# 12 vertices

vn -0.4226 0.0000 0.9063
vn 0.4226 -0.0000 -0.9063
vn 0.0000 1.0000 -0.0000
vn 0.9063 0.0000 0.4226
vn -0.0000 -1.0000 0.0000
vn -0.9063 0.0000 -0.4226
# 6 vertex normals

vt 1.0000 0.0000 0.0000
vt 1.0000 1.0000 0.0000
vt 0.0000 1.0000 0.0000
vt 0.0000 0.0000 0.0000
# 4 texture coords

g Box007
usemtl 07___Default
s 2
f -12/-4/-6 -11/-3/-6 -10/-2/-6 -9/-1/-6 
usemtl 03___Default
s 4
f -8/-1/-5 -7/-4/-5 -6/-3/-5 -5/-2/-5 
usemtl 07___Default
s 8
f -12/-1/-4 -9/-4/-4 -4/-3/-4 -3/-2/-4 
s 16
f -9/-1/-3 -10/-4/-3 -2/-3/-3 -4/-2/-3 
s 32
f -10/-1/-2 -11/-4/-2 -1/-3/-2 -2/-2/-2 
s 64
f -11/-1/-1 -12/-4/-1 -3/-3/-1 -1/-2/-1 
s off
f -3/-1/-5 -4/-4/-5 -7/-4/-5 -8/-1/-5 
f -4/-4/-5 -2/-3/-5 -6/-3/-5 -7/-4/-5 
f -2/-3/-5 -1/-2/-5 -5/-2/-5 -6/-3/-5 
f -1/-2/-5 -3/-1/-5 -8/-1/-5 -5/-2/-5 
# 10 polygons

#
# object Box008
#

v  -1066415.7500 151034.9063 956902.1875
v  -1066415.7500 79040.8750 956902.1875
v  -972827.0000 79040.8750 1000543.3125
v  -972826.9375 151034.9063 1000543.3125
v  -1060107.7500 146850.6719 958755.6250
v  -978301.5000 146850.6719 996902.5000
v  -978301.5000 83225.1016 996902.5000
v  -1060107.7500 83225.1016 958755.6250
v  -972410.2500 151034.9063 999649.6875
v  -1065999.0000 151034.9063 956008.5000
v  -972410.2500 79040.8750 999649.6875
v  -1065999.0000 79040.8750 956008.5000
# 12 vertices

vn -0.4226 0.0000 0.9063
vn 0.4226 -0.0000 -0.9063
vn 0.0000 1.0000 -0.0000
vn 0.9063 -0.0000 0.4226
vn -0.0000 -1.0000 0.0000
vn -0.9063 -0.0000 -0.4226
# 6 vertex normals

vt 1.0000 0.0000 0.0000
vt 1.0000 1.0000 0.0000
vt 0.0000 1.0000 0.0000
vt 0.0000 0.0000 0.0000
# 4 texture coords

g Box008
usemtl 07___Default
s 2
f -12/-4/-6 -11/-3/-6 -10/-2/-6 -9/-1/-6 
usemtl 03___Default
s 4
f -8/-1/-5 -7/-4/-5 -6/-3/-5 -5/-2/-5 
usemtl 07___Default
s 8
f -12/-1/-4 -9/-4/-4 -4/-3/-4 -3/-2/-4 
s 16
f -9/-1/-3 -10/-4/-3 -2/-3/-3 -4/-2/-3 
s 32
f -10/-1/-2 -11/-4/-2 -1/-3/-2 -2/-2/-2 
s 64
f -11/-1/-1 -12/-4/-1 -3/-3/-1 -1/-2/-1 
s off
f -3/-1/-5 -4/-4/-5 -7/-4/-5 -8/-1/-5 
f -4/-4/-5 -2/-3/-5 -6/-3/-5 -7/-4/-5 
f -2/-3/-5 -1/-2/-5 -5/-2/-5 -6/-3/-5 
f -1/-2/-5 -3/-1/-5 -8/-1/-5 -5/-2/-5 
# 10 polygons

#
# object Box009
#

v  -902591.4375 161941.6719 1033294.8125
v  -902591.4375 62894.1680 1033294.8125
v  -809002.5625 62894.1680 1076936.0000
v  -809002.5625 161941.6719 1076936.0000
v  -896283.4375 158937.6250 1035148.2500
v  -814477.1250 158937.6250 1073295.1250
v  -814477.1250 65898.2188 1073295.1250
v  -896283.4375 65898.2188 1035148.2500
v  -808585.8750 161941.6719 1076042.2500
v  -902174.6875 161941.6719 1032401.1250
v  -808585.8750 62894.1680 1076042.2500
v  -902174.6875 62894.1680 1032401.1250
# 12 vertices

vn -0.4226 0.0000 0.9063
vn 0.4226 -0.0000 -0.9063
vn 0.0000 1.0000 -0.0000
vn 0.9063 0.0000 0.4226
vn -0.0000 -1.0000 0.0000
vn -0.9063 0.0000 -0.4226
# 6 vertex normals

vt 1.0000 0.0000 0.0000
vt 1.0000 1.0000 0.0000
vt 0.0000 1.0000 0.0000
vt 0.0000 0.0000 0.0000
# 4 texture coords

g Box009
usemtl 07___Default
s 2
f -12/-4/-6 -11/-3/-6 -10/-2/-6 -9/-1/-6 
usemtl 03___Default
s 4
f -8/-1/-5 -7/-4/-5 -6/-3/-5 -5/-2/-5 
usemtl 07___Default
s 8
f -12/-1/-4 -9/-4/-4 -4/-3/-4 -3/-2/-4 
s 16
f -9/-1/-3 -10/-4/-3 -2/-3/-3 -4/-2/-3 
s 32
f -10/-1/-2 -11/-4/-2 -1/-3/-2 -2/-2/-2 
s 64
f -11/-1/-1 -12/-4/-1 -3/-3/-1 -1/-2/-1 
s off
f -3/-1/-5 -4/-4/-5 -7/-4/-5 -8/-1/-5 
f -4/-4/-5 -2/-3/-5 -6/-3/-5 -7/-4/-5 
f -2/-3/-5 -1/-2/-5 -5/-2/-5 -6/-3/-5 
f -1/-2/-5 -3/-1/-5 -8/-1/-5 -5/-2/-5 
# 10 polygons

#
# object Box010
#

v  -1007842.5000 279256.7188 984215.3750
v  -1191465.0000 279256.7188 898590.8750
v  -1191465.0000 202299.7969 898590.8750
v  -1007842.5000 202299.7969 984215.3750
v  -1012994.9375 272756.4375 980724.7500
v  -1012994.9375 208800.0781 980724.7500
v  -1185479.1250 208800.0781 900294.1250
v  -1185479.1250 272756.4375 900294.1250
v  -1007425.8125 202299.7969 983321.7500
v  -1007425.8125 279256.7188 983321.6875
v  -1191048.2500 202299.7969 897697.1875
v  -1191048.2500 279256.7188 897697.1875
# 12 vertices

vn -0.4226 0.0000 0.9063
vn 0.4226 -0.0000 -0.9063
vn 0.9063 0.0000 0.4226
vn -0.0000 -1.0000 0.0000
vn -0.9063 -0.0000 -0.4226
vn -0.0000 1.0000 -0.0000
# 6 vertex normals

vt 1.0000 0.0000 0.0000
vt 1.0000 1.0000 0.0000
vt 0.0000 1.0000 0.0000
vt 0.0000 0.0000 0.0000
# 4 texture coords

g Box010
usemtl 07___Default
s 2
f -12/-4/-6 -11/-3/-6 -10/-2/-6 -9/-1/-6 
usemtl 03___Default
s 4
f -8/-1/-5 -7/-4/-5 -6/-3/-5 -5/-2/-5 
usemtl 07___Default
s 8
f -12/-1/-4 -9/-4/-4 -4/-3/-4 -3/-2/-4 
s 16
f -9/-1/-3 -10/-4/-3 -2/-3/-3 -4/-2/-3 
s 32
f -10/-1/-2 -11/-4/-2 -1/-3/-2 -2/-2/-2 
s 64
f -11/-1/-1 -12/-4/-1 -3/-3/-1 -1/-2/-1 
s off
f -3/-1/-5 -4/-4/-5 -7/-4/-5 -8/-1/-5 
f -4/-4/-5 -2/-3/-5 -6/-3/-5 -7/-4/-5 
f -2/-3/-5 -1/-2/-5 -5/-2/-5 -6/-3/-5 
f -1/-2/-5 -3/-1/-5 -8/-1/-5 -5/-2/-5 
# 10 polygons

